<svg width="683" height="683" viewBox="0 0 683 683" fill="none" xmlns="http://www.w3.org/2000/svg">
<g clip-path="url(#clip0_1532_20161)">
<mask id="mask0_1532_20161" style="mask-type:luminance" maskUnits="userSpaceOnUse" x="0" y="0" width="683" height="683">
<path d="M0 -0.00256348H682.667V682.664H0V-0.00256348Z" fill="#0088D1"/>
</mask>
<g mask="url(#mask0_1532_20161)">
<path d="M341.339 367.992C282.525 367.992 234.672 320.139 234.672 261.326C234.672 202.512 282.525 154.659 341.339 154.659C400.152 154.659 448.005 202.512 448.005 261.326C448.005 320.139 400.152 367.992 341.339 367.992Z" stroke="black" stroke-width="26.6667" stroke-miterlimit="10" stroke-linecap="round" stroke-linejoin="round"/>
<path d="M142.203 602.625C142.216 602.452 142.23 602.278 142.256 602.105C151.923 500.665 237.362 421.332 341.336 421.332C445.31 421.332 530.735 500.652 540.43 602.092" stroke="black" stroke-width="26.6667" stroke-miterlimit="10" stroke-linecap="round" stroke-linejoin="round"/>
<path d="M600.003 122.659C600.003 130.023 594.032 135.992 586.669 135.992C579.307 135.992 573.336 130.023 573.336 122.659C573.336 115.295 579.307 109.326 586.669 109.326C594.032 109.326 600.003 115.295 600.003 122.659Z" fill="black"/>
<path d="M621.897 171.205C652.005 220.791 669.336 279.015 669.336 341.328C669.336 447.715 618.816 542.195 540.429 602.088V602.101C485.243 644.288 416.243 669.328 341.336 669.328C266.443 669.328 197.443 644.288 142.257 602.101C63.8692 542.208 13.3359 447.728 13.3359 341.328C13.3359 160.048 160.029 13.3281 341.336 13.3281C417.164 13.3281 486.945 38.9948 542.471 82.1254" stroke="black" stroke-width="26.6667" stroke-miterlimit="10" stroke-linecap="round" stroke-linejoin="round"/>
</g>
</g>
<defs>
<clipPath id="clip0_1532_20161">
<rect width="682.667" height="682.667" fill="#0088D1"/>
</clipPath>
</defs>
</svg>
