<?xml version="1.0" encoding="utf-8"?>
<!-- Generator: Adobe Illustrator 24.1.0, SVG Export Plug-In . SVG Version: 6.00 Build 0)  -->
<svg version="1.1" id="Layer_1" xmlns="http://www.w3.org/2000/svg" xmlns:xlink="http://www.w3.org/1999/xlink" x="0px" y="0px"
	 viewBox="0 0 512 512" style="enable-background:new 0 0 512 512;" xml:space="preserve">
<style type="text/css">
	.st0{fill:#FFFFFF;}
	.st1{fill: #bdbdbd;}
</style>
<g id="Page-1">
	<g id="_x30_37---404-Page">
		<path class='st1' id="Shape" d="M230.4,102.4h51.2c4.7,0,8.5-3.8,8.5-8.5s-3.8-8.5-8.5-8.5h-51.2c-4.7,0-8.5,3.8-8.5,8.5
			S225.7,102.4,230.4,102.4z"/>
		<path class='st1' id="Shape_1_" d="M375.5,102.4h93.9c4.7,0,8.5-3.8,8.5-8.5s-3.8-8.5-8.5-8.5h-93.9c-4.7,0-8.5,3.8-8.5,8.5
			S370.8,102.4,375.5,102.4z"/>
		<path class='st1' id="Shape_2_" d="M469.3,51.2H42.7C19.1,51.2,0,70.3,0,93.9v324.3c0,23.6,19.1,42.6,42.7,42.7h426.7
			c23.6,0,42.6-19.1,42.7-42.7V93.9C512,70.3,492.9,51.2,469.3,51.2z M42.7,68.3h426.7c14.1,0,25.6,11.5,25.6,25.6v25.6H17.1V93.9
			C17.1,79.7,28.5,68.3,42.7,68.3z M469.3,443.7H42.7c-14.1,0-25.6-11.5-25.6-25.6V136.5H495v281.6
			C494.9,432.3,483.5,443.7,469.3,443.7z"/>
		<circle class='st1' id="Oval" cx="42.7" cy="93.9" r="8.5"/>
		<circle class='st1' id="Oval_1_" cx="76.8" cy="93.9" r="8.5"/>
		<circle class='st1' id="Oval_2_" cx="110.9" cy="93.9" r="8.5"/>
	</g>
</g>
<path class='st1' d="M135,173.5v52c0,3.6,3.6,6.5,8.1,6.5H369c4.5,0,8.1-2.9,8.1-6.5v-52c0-3.6-3.6-6.5-8.1-6.5H143.1
	C138.6,167,135,169.9,135,173.5z M151.1,180h209.7v39H151.1V180z"/>
<path class='st1' d="M135,256.5v52c0,3.6,3.6,6.5,8.1,6.5H369c4.5,0,8.1-2.9,8.1-6.5v-52c0-3.6-3.6-6.5-8.1-6.5H143.1
	C138.6,250,135,252.9,135,256.5z M151.1,263h209.7v39H151.1V263z"/>
<rect class='st1' x="87" y="342" width="347" height="68"/>
<rect x="157" y="367" class="st0" width="206" height="17"/>
</svg>