<svg width="22" height="22" viewBox="0 0 22 22" fill="none" xmlns="http://www.w3.org/2000/svg">
<g clip-path="url(#clip0_1380_438)">
<path d="M6.77454 4.40921C6.58432 4.40921 6.43006 4.56342 6.43006 4.75369C6.43006 5.17156 6.09009 5.51153 5.67222 5.51153C5.25435 5.51153 4.91438 5.17156 4.91438 4.75369C4.91438 4.33581 5.25435 3.99585 5.67222 3.99585C5.86244 3.99585 6.0167 3.84163 6.0167 3.65137C6.0167 3.4611 5.86249 3.30688 5.67222 3.30688C4.87446 3.30688 4.22546 3.95593 4.22546 4.75364C4.22546 5.55136 4.87451 6.2004 5.67222 6.2004C6.46994 6.2004 7.11898 5.55136 7.11898 4.75364C7.11902 4.56342 6.96476 4.40921 6.77454 4.40921Z" fill="#0088D1"/>
<path d="M6.77454 8.45095C6.58432 8.45095 6.43006 8.60517 6.43006 8.79543C6.43006 9.2133 6.09009 9.55327 5.67222 9.55327C5.25435 9.55327 4.91438 9.2133 4.91438 8.79543C4.91438 8.37756 5.25435 8.03759 5.67222 8.03759C5.86244 8.03759 6.0167 7.88338 6.0167 7.69311C6.0167 7.50285 5.86249 7.34863 5.67222 7.34863C4.87446 7.34863 4.22546 7.99768 4.22546 8.79539C4.22546 9.59311 4.87451 10.2421 5.67222 10.2421C6.46994 10.2421 7.11898 9.59311 7.11898 8.79539C7.11902 8.60521 6.96476 8.45095 6.77454 8.45095Z" fill="#0088D1"/>
<path d="M10.8163 9.18579H8.24426C8.05404 9.18579 7.89978 9.34001 7.89978 9.53027C7.89978 9.72054 8.054 9.87475 8.24426 9.87475H10.8163C11.0065 9.87475 11.1608 9.72054 11.1608 9.53027C11.1608 9.34001 11.0065 9.18579 10.8163 9.18579Z" fill="#0088D1"/>
<path d="M10.8163 7.71606H8.24426C8.05404 7.71606 7.89978 7.87028 7.89978 8.06054C7.89978 8.25081 8.054 8.40503 8.24426 8.40503H10.8163C11.0065 8.40503 11.1608 8.25081 11.1608 8.06054C11.1608 7.87028 11.0065 7.71606 10.8163 7.71606Z" fill="#0088D1"/>
<path d="M10.0814 13.2275H8.24426C8.05404 13.2275 7.89978 13.3818 7.89978 13.572C7.89978 13.7623 8.054 13.9165 8.24426 13.9165H10.0814C10.2717 13.9165 10.4259 13.7623 10.4259 13.572C10.4259 13.3818 10.2717 13.2275 10.0814 13.2275Z" fill="#0088D1"/>
<path d="M10.8163 11.7578H8.24426C8.05404 11.7578 7.89978 11.912 7.89978 12.1023C7.89978 12.2926 8.054 12.4468 8.24426 12.4468H10.8163C11.0065 12.4468 11.1608 12.2926 11.1608 12.1023C11.1608 11.912 11.0065 11.7578 10.8163 11.7578Z" fill="#0088D1"/>
<path d="M14.1232 5.14404H8.24426C8.05404 5.14404 7.89978 5.29826 7.89978 5.48852C7.89978 5.67879 8.054 5.833 8.24426 5.833H14.1232C14.3134 5.833 14.4676 5.67879 14.4676 5.48852C14.4676 5.29826 14.3134 5.14404 14.1232 5.14404Z" fill="#0088D1"/>
<path d="M12.6535 3.67432H8.24426C8.05404 3.67432 7.89978 3.82853 7.89978 4.0188C7.89978 4.20906 8.054 4.36328 8.24426 4.36328H12.6535C12.8437 4.36328 12.9979 4.20906 12.9979 4.0188C12.9979 3.82853 12.8437 3.67432 12.6535 3.67432Z" fill="#0088D1"/>
<path d="M6.77454 12.4927C6.58432 12.4927 6.43006 12.6469 6.43006 12.8372C6.43006 13.2551 6.09009 13.595 5.67222 13.595C5.25435 13.595 4.91438 13.2551 4.91438 12.8372C4.91438 12.4193 5.25435 12.0793 5.67222 12.0793C5.86244 12.0793 6.0167 11.9251 6.0167 11.7349C6.0167 11.5446 5.86249 11.3904 5.67222 11.3904C4.87446 11.3904 4.22546 12.0394 4.22546 12.8371C4.22546 13.6349 4.87451 14.2839 5.67222 14.2839C6.46994 14.2839 7.11898 13.6349 7.11898 12.8371C7.11902 12.6469 6.96476 12.4927 6.77454 12.4927Z" fill="#0088D1"/>
<path d="M15.5929 0H3.10021C2.50509 0 2.02087 0.484172 2.02087 1.07933V16.5115C2.02087 17.1066 2.50505 17.5908 3.10021 17.5908H9.34657C9.5368 17.5908 9.69105 17.4366 9.69105 17.2463C9.69105 17.0561 9.53684 16.9018 9.34657 16.9018H3.10021C2.88493 16.9018 2.70979 16.7267 2.70979 16.5114V1.07933C2.70979 0.864059 2.88493 0.688918 3.10021 0.688918H15.5929C15.8082 0.688918 15.9833 0.864059 15.9833 1.07933V12.4698C15.9833 12.66 16.1375 12.8143 16.3278 12.8143C16.518 12.8143 16.6723 12.6601 16.6723 12.4698V1.07933C16.6722 0.484172 16.1881 0 15.5929 0Z" fill="#0088D1"/>
<path d="M18.8452 13.9689C18.525 13.937 18.205 14.0278 17.9517 14.2201C17.75 13.8815 17.406 13.6414 17.008 13.6015C16.6877 13.5696 16.3678 13.6604 16.1146 13.8526C15.9128 13.5141 15.5688 13.274 15.1708 13.2341C14.9263 13.2097 14.6822 13.2568 14.4676 13.366V8.9792C14.4676 8.62303 14.3161 8.2816 14.0518 8.04248C13.7878 7.80358 13.432 7.68696 13.0755 7.72262C12.4396 7.7863 11.9415 8.36127 11.9415 9.03162V13.4295L10.9289 14.4421C10.3908 14.9802 10.1736 15.7436 10.348 16.4844L11.1167 19.7516C11.4282 21.0755 12.5956 22.0002 13.9557 22.0002H17.0626C18.6707 22.0002 19.9791 20.6918 19.9791 19.0836V15.278C19.9791 14.6076 19.4811 14.0326 18.8452 13.9689ZM19.2902 19.0836C19.2902 20.3118 18.2909 21.3111 17.0626 21.3111H13.9557C12.9169 21.3111 12.0252 20.6049 11.7873 19.5937L11.0186 16.3265C10.8993 15.8197 11.0479 15.2973 11.4161 14.9291L11.9415 14.4037V15.593C11.9415 15.7832 12.0958 15.9374 12.286 15.9374C12.4763 15.9374 12.6305 15.7832 12.6305 15.593V9.03158C12.6305 8.71082 12.8561 8.43693 13.1442 8.40815C13.3097 8.39152 13.468 8.44316 13.5896 8.55334C13.7098 8.66209 13.7788 8.81734 13.7788 8.97924V15.0419C13.7788 15.2321 13.933 15.3864 14.1232 15.3864C14.3135 15.3864 14.4677 15.2321 14.4677 15.0419V14.4907C14.4677 14.3288 14.5366 14.1736 14.6568 14.0648C14.7786 13.9546 14.9368 13.9029 15.1022 13.9196C15.3903 13.9485 15.616 14.2223 15.616 14.5431V15.4092C15.616 15.5994 15.7702 15.7537 15.9604 15.7537C16.1507 15.7537 16.3049 15.5995 16.3049 15.4092V14.8581C16.3049 14.6961 16.3738 14.5409 16.494 14.4321C16.6158 14.322 16.774 14.2703 16.9394 14.287C17.2275 14.3158 17.4532 14.5897 17.4532 14.9104V15.7766C17.4532 15.9668 17.6074 16.1211 17.7977 16.1211C17.9879 16.1211 18.1421 15.9669 18.1421 15.7766V15.2254C18.1421 15.0635 18.211 14.9083 18.3312 14.7995C18.453 14.6894 18.6111 14.6377 18.7767 14.6544C19.0647 14.6832 19.2904 14.9571 19.2904 15.2778V19.0836H19.2902Z" fill="#0088D1"/>
</g>
<defs>
<clipPath id="clip0_1380_438">
<rect width="22" height="22" fill="white"/>
</clipPath>
</defs>
</svg>
