<svg enable-background="new 0 0 36 60" height="512" viewBox="0 0 36 60" width="512" xmlns="http://www.w3.org/2000/svg"><path style="fill: #87878d;" d="m30 28h-24c-.552 0-1-.448-1-1v-18c0-.552.448-1 1-1h24c.552 0 1 .448 1 1v18c0 .552-.448 1-1 1zm-23-2h22v-16h-22z"/><path style="fill: #87878d;" d="m18 25c-3.86 0-7-3.14-7-7s3.14-7 7-7 7 3.14 7 7-3.14 7-7 7zm0-12c-2.757 0-5 2.243-5 5s2.243 5 5 5 5-2.243 5-5-2.243-5-5-5z"/><path style="fill: #87878d;" d="m17 21c-.256 0-.512-.098-.707-.293-.391-.391-.391-1.023 0-1.414l1.293-1.293-1.293-1.293c-.391-.391-.391-1.023 0-1.414.39-.391 1.024-.391 1.414 0l2 2c.391.391.391 1.023 0 1.414l-2 2c-.195.195-.451.293-.707.293z"/><path style="fill: #87878d;" d="m30 48h-24c-.552 0-1-.448-1-1v-15c0-.552.448-1 1-1h24c.552 0 1 .448 1 1v15c0 .552-.448 1-1 1zm-23-2h22v-13h-22z"/><path style="fill: #87878d;" d="m18 48c-3.86 0-7-3.14-7-7s3.14-7 7-7 7 3.14 7 7-3.14 7-7 7zm0-12c-2.757 0-5 2.243-5 5s2.243 5 5 5 5-2.243 5-5-2.243-5-5-5z"/><path style="fill: #87878d;" d="m17 44c-.256 0-.512-.098-.707-.293-.391-.391-.391-1.023 0-1.414l1.293-1.293-1.293-1.293c-.391-.391-.391-1.023 0-1.414.39-.391 1.024-.391 1.414 0l2 2c.391.391.391 1.023 0 1.414l-2 2c-.195.195-.451.293-.707.293z"/><path style="fill: #87878d;" d="m21 6h-6c-.552 0-1-.448-1-1s.448-1 1-1h6c.552 0 1 .448 1 1s-.448 1-1 1z"/><path style="fill: #87878d;" d="m33.002 60h-30.004c-1.653 0-2.998-1.345-2.998-2.998v-10.002c0-.552.448-1 1-1h34c.552 0 1 .448 1 1v10.002c0 1.653-1.345 2.998-2.998 2.998zm-31.002-12v9.002c0 .55.448.998.998.998h30.004c.55 0 .998-.448.998-.998v-9.002z"/><path style="fill: #87878d;" d="m18 57c-2.206 0-4-1.794-4-4s1.794-4 4-4 4 1.794 4 4-1.794 4-4 4zm0-6c-1.103 0-2 .897-2 2s.897 2 2 2 2-.897 2-2-.897-2-2-2z"/><path style="fill: #87878d;" d="m33.002 60h-30.004c-1.653 0-2.998-1.345-2.998-2.998v-54c0-1.655 1.346-3.002 3.001-3.002h29.997c1.655 0 3.002 1.347 3.002 3.001v54c0 1.654-1.345 2.999-2.998 2.999zm-30.001-58c-.552 0-1.001.449-1.001 1.001v54c0 .551.448.999.998.999h30.004c.55 0 .998-.448.998-.998v-54c0-.553-.449-1.002-1.002-1.002z"/></svg>