<svg width="340" height="340" viewBox="0 0 340 340" fill="none" xmlns="http://www.w3.org/2000/svg">
<path d="M292.778 0C318.172 0 340 20.4721 340 47.2222V292.778C340 318.172 319.558 340 292.778 340H47.2222C21.8284 340 0 319.457 0 292.778V47.2222C0 21.8284 20.3103 0 47.2222 0H292.778ZM47.2222 18.8889C32.133 18.8889 18.8889 31.0199 18.8889 47.2222V292.778C18.8889 307.867 30.8906 321.111 47.2222 321.111H292.778C307.867 321.111 321.111 308.724 321.111 292.778V47.2222C321.111 32.133 308.674 18.8889 292.778 18.8889H47.2222ZM258.437 109.896C261.842 113.301 262.411 119.247 258.437 123.252L151.586 230.104C148.097 233.593 142.122 234.293 138.001 229.867L96.9821 185.886C93.4245 182.071 93.6328 176.095 97.4474 172.538C100.968 169.254 106.921 168.742 110.796 173.003L145.142 209.827L245.081 109.896C248.769 106.208 254.749 106.208 258.437 109.896Z" fill="#BDBDBD"/>
</svg>