<svg width="365" height="365" viewBox="0 0 365 365" fill="none"  xmlns="http://www.w3.org/2000/svg">
<path d="M117.435 220.275C113.298 220.275 109.615 219.439 106.385 217.767C103.183 216.067 100.662 213.744 98.82 210.797C97.0067 207.822 96.1 204.437 96.1 200.64C96.1 197.41 96.8225 194.364 98.2675 191.502C99.7408 188.641 101.852 186.303 104.6 184.49L104.345 188.06C102.277 186.048 100.648 183.923 99.4575 181.685C98.2958 179.447 97.715 176.925 97.715 174.12C97.715 170.578 98.5508 167.49 100.223 164.855C101.923 162.22 104.246 160.18 107.193 158.735C110.168 157.262 113.582 156.525 117.435 156.525C121.288 156.525 124.688 157.262 127.635 158.735C130.61 160.18 132.933 162.22 134.605 164.855C136.305 167.49 137.155 170.578 137.155 174.12C137.155 176.925 136.603 179.447 135.498 181.685C134.393 183.895 132.707 186.048 130.44 188.145V184.575C133.132 186.275 135.2 188.57 136.645 191.46C138.118 194.35 138.855 197.41 138.855 200.64C138.855 204.437 137.934 207.822 136.093 210.797C134.251 213.744 131.715 216.067 128.485 217.767C125.255 219.439 121.572 220.275 117.435 220.275ZM117.435 209.395C120.155 209.395 122.365 208.658 124.065 207.185C125.765 205.712 126.615 203.53 126.615 200.64C126.615 197.778 125.765 195.597 124.065 194.095C122.365 192.565 120.155 191.8 117.435 191.8C114.715 191.8 112.519 192.565 110.848 194.095C109.176 195.597 108.34 197.778 108.34 200.64C108.34 203.53 109.176 205.712 110.848 207.185C112.519 208.658 114.715 209.395 117.435 209.395ZM117.435 180.835C119.645 180.835 121.444 180.297 122.833 179.22C124.221 178.115 124.915 176.415 124.915 174.12C124.915 171.825 124.221 170.125 122.833 169.02C121.444 167.887 119.645 167.32 117.435 167.32C115.225 167.32 113.426 167.887 112.038 169.02C110.649 170.125 109.955 171.825 109.955 174.12C109.955 176.415 110.649 178.115 112.038 179.22C113.426 180.297 115.225 180.835 117.435 180.835ZM169.544 156.61C173.596 156.61 177.222 157.559 180.424 159.457C183.654 161.356 186.204 164.005 188.074 167.405C189.944 170.777 190.879 174.687 190.879 179.135V196.9C190.879 201.717 189.944 205.882 188.074 209.395C186.204 212.88 183.569 215.572 180.169 217.47C176.769 219.34 172.774 220.275 168.184 220.275C165.209 220.275 162.376 219.836 159.684 218.957C157.021 218.051 154.556 216.563 152.289 214.495L160.534 206.25C161.554 207.27 162.73 208.063 164.061 208.63C165.421 209.197 166.796 209.48 168.184 209.48C170.394 209.48 172.306 208.97 173.921 207.95C175.565 206.902 176.826 205.556 177.704 203.912C178.611 202.241 179.064 200.47 179.064 198.6V189.505L181.019 191.63C179.291 193.415 177.265 194.789 174.941 195.752C172.618 196.687 170.224 197.155 167.759 197.155C163.906 197.155 160.506 196.291 157.559 194.562C154.641 192.834 152.346 190.468 150.674 187.465C149.031 184.462 148.209 181.033 148.209 177.18C148.209 173.327 149.186 169.856 151.141 166.767C153.096 163.651 155.689 161.186 158.919 159.372C162.149 157.531 165.691 156.61 169.544 156.61ZM169.544 167.66C167.787 167.66 166.172 168.085 164.699 168.935C163.254 169.785 162.092 170.932 161.214 172.377C160.364 173.822 159.939 175.423 159.939 177.18C159.939 178.937 160.364 180.552 161.214 182.025C162.064 183.47 163.211 184.632 164.656 185.51C166.101 186.36 167.702 186.785 169.459 186.785C171.216 186.785 172.816 186.36 174.261 185.51C175.735 184.632 176.896 183.47 177.746 182.025C178.625 180.552 179.064 178.937 179.064 177.18C179.064 175.48 178.639 173.907 177.789 172.462C176.939 171.017 175.791 169.856 174.346 168.977C172.901 168.099 171.301 167.66 169.544 167.66ZM212.135 219L204.485 211.35L258.035 157.8L265.685 165.535L212.135 219ZM252.935 220.275C250.13 220.275 247.566 219.595 245.242 218.235C242.947 216.847 241.106 215.005 239.717 212.71C238.329 210.387 237.635 207.808 237.635 204.975C237.635 202.198 238.343 199.648 239.76 197.325C241.177 195.002 243.047 193.146 245.37 191.757C247.693 190.369 250.215 189.675 252.935 189.675C255.74 189.675 258.304 190.369 260.627 191.757C262.951 193.117 264.792 194.959 266.152 197.282C267.541 199.577 268.235 202.142 268.235 204.975C268.235 207.808 267.541 210.387 266.152 212.71C264.792 215.005 262.951 216.847 260.627 218.235C258.304 219.595 255.74 220.275 252.935 220.275ZM252.935 210.5C253.927 210.5 254.833 210.245 255.655 209.735C256.505 209.225 257.185 208.559 257.695 207.737C258.205 206.887 258.46 205.967 258.46 204.975C258.46 203.983 258.205 203.077 257.695 202.255C257.185 201.405 256.505 200.725 255.655 200.215C254.833 199.705 253.927 199.45 252.935 199.45C251.943 199.45 251.022 199.705 250.172 200.215C249.351 200.725 248.685 201.405 248.175 202.255C247.665 203.077 247.41 203.983 247.41 204.975C247.41 205.967 247.665 206.887 248.175 207.737C248.685 208.559 249.351 209.225 250.172 209.735C251.022 210.245 251.943 210.5 252.935 210.5ZM217.235 187.125C214.43 187.125 211.866 186.445 209.542 185.085C207.219 183.697 205.363 181.855 203.975 179.56C202.615 177.237 201.935 174.658 201.935 171.825C201.935 169.048 202.643 166.498 204.06 164.175C205.477 161.852 207.347 159.996 209.67 158.607C211.993 157.219 214.515 156.525 217.235 156.525C220.04 156.525 222.59 157.219 224.885 158.607C227.208 159.967 229.064 161.809 230.452 164.132C231.841 166.427 232.535 168.992 232.535 171.825C232.535 174.658 231.841 177.237 230.452 179.56C229.064 181.855 227.208 183.697 224.885 185.085C222.59 186.445 220.04 187.125 217.235 187.125ZM217.235 177.35C218.227 177.35 219.133 177.095 219.955 176.585C220.805 176.075 221.485 175.409 221.995 174.587C222.505 173.737 222.76 172.817 222.76 171.825C222.76 170.833 222.505 169.927 221.995 169.105C221.485 168.255 220.805 167.575 219.955 167.065C219.133 166.555 218.227 166.3 217.235 166.3C216.243 166.3 215.322 166.555 214.472 167.065C213.651 167.575 212.985 168.255 212.475 169.105C211.965 169.927 211.71 170.833 211.71 171.825C211.71 172.817 211.965 173.737 212.475 174.587C212.985 175.409 213.651 176.075 214.472 176.585C215.322 177.095 216.243 177.35 217.235 177.35Z" fill="#0088D1"/>
<path d="M6.75916 166.151C10.3204 127.871 26.2731 91.8779 52.0779 63.5788C52.7792 62.8096 54.1625 62.6476 55.1583 63.6435C56.0476 64.5327 56.2049 66.2016 55.1014 67.4232C30.3192 94.8579 15.0001 129.631 11.5611 166.597C7.85232 206.463 18.1936 246.37 40.796 279.418C63.3985 312.465 96.8406 336.573 135.338 347.572C173.835 358.571 214.965 355.769 251.615 339.651C288.264 323.532 318.128 295.111 336.039 259.304C353.951 223.497 358.784 182.555 349.703 143.561C340.622 104.567 318.198 69.9733 286.309 45.7637C256.74 23.3148 220.757 11.1039 183.787 10.8275C182.141 10.8151 181.018 9.5712 180.963 8.31484C180.902 6.90777 181.956 5.99778 182.997 6.00069C221.295 6.10774 258.605 18.6759 289.225 41.9226C322.01 66.8123 345.064 102.378 354.4 142.467C363.737 182.557 358.767 224.648 340.353 261.461C321.938 298.275 291.235 327.494 253.556 344.065C215.877 360.636 173.591 363.517 134.013 352.209C94.4343 340.901 60.0528 316.116 36.8154 282.14C13.578 248.165 2.94622 207.136 6.75916 166.151Z" fill="#0088D1"  stroke="#0088D1" stroke-width="12" />
</svg>