<svg width="321" height="342" viewBox="0 0 321 342" fill="none" xmlns="http://www.w3.org/2000/svg">
<path d="M86.046 199.11C80.718 199.11 76.1177 197.951 72.245 195.632C68.397 193.313 65.4247 190.07 63.328 185.901C61.256 181.732 60.22 176.885 60.22 171.36C60.22 165.835 61.256 160.988 63.328 156.819C65.4247 152.65 68.397 149.407 72.245 147.088C76.1177 144.769 80.718 143.61 86.046 143.61C92.1633 143.61 97.294 145.127 101.438 148.161C105.607 151.195 108.542 155.302 110.244 160.482L100.106 163.294C99.1193 160.063 97.4543 157.559 95.111 155.783C92.7677 153.982 89.746 153.082 86.046 153.082C82.6667 153.082 79.8423 153.834 77.573 155.339C75.3283 156.844 73.6387 158.965 72.504 161.703C71.3693 164.441 70.802 167.66 70.802 171.36C70.802 175.06 71.3693 178.279 72.504 181.017C73.6387 183.755 75.3283 185.876 77.573 187.381C79.8423 188.886 82.6667 189.638 86.046 189.638C89.746 189.638 92.7677 188.738 95.111 186.937C97.4543 185.136 99.1193 182.633 100.106 179.426L110.244 182.238C108.542 187.418 105.607 191.525 101.438 194.559C97.294 197.593 92.1633 199.11 86.046 199.11ZM140.759 199.11C136.813 199.11 133.248 198.419 130.066 197.038C126.909 195.632 124.307 193.634 122.259 191.044C120.237 188.429 118.954 185.321 118.411 181.72L128.919 180.166C129.659 183.225 131.189 185.58 133.507 187.233C135.826 188.886 138.465 189.712 141.425 189.712C143.078 189.712 144.681 189.453 146.235 188.935C147.789 188.417 149.06 187.652 150.046 186.641C151.058 185.63 151.563 184.384 151.563 182.904C151.563 182.361 151.477 181.843 151.304 181.35C151.156 180.832 150.897 180.351 150.527 179.907C150.157 179.463 149.627 179.044 148.936 178.649C148.27 178.254 147.419 177.897 146.383 177.576L132.545 173.506C131.509 173.21 130.301 172.791 128.919 172.248C127.563 171.705 126.243 170.928 124.96 169.917C123.678 168.906 122.605 167.574 121.741 165.921C120.903 164.244 120.483 162.135 120.483 159.594C120.483 156.017 121.384 153.045 123.184 150.677C124.985 148.309 127.39 146.545 130.399 145.386C133.409 144.227 136.739 143.659 140.389 143.684C144.065 143.733 147.345 144.362 150.231 145.571C153.117 146.78 155.535 148.543 157.483 150.862C159.432 153.156 160.838 155.968 161.701 159.298L150.823 161.148C150.429 159.421 149.701 157.966 148.64 156.782C147.58 155.598 146.309 154.698 144.829 154.081C143.374 153.464 141.845 153.131 140.241 153.082C138.663 153.033 137.17 153.255 135.764 153.748C134.383 154.217 133.248 154.907 132.36 155.82C131.497 156.733 131.065 157.818 131.065 159.076C131.065 160.235 131.423 161.185 132.138 161.925C132.854 162.64 133.754 163.22 134.839 163.664C135.925 164.108 137.035 164.478 138.169 164.774L147.419 167.29C148.801 167.66 150.33 168.153 152.007 168.77C153.685 169.362 155.288 170.201 156.817 171.286C158.371 172.347 159.642 173.753 160.628 175.504C161.64 177.255 162.145 179.475 162.145 182.164C162.145 185.025 161.541 187.529 160.332 189.675C159.148 191.796 157.545 193.56 155.522 194.966C153.5 196.347 151.206 197.383 148.64 198.074C146.1 198.765 143.473 199.11 140.759 199.11ZM180.302 198L164.022 144.72H174.382L187.702 188.528L201.244 144.72H211.604L195.324 198H180.302Z" fill="#0088D1"/>
<path fill-rule="evenodd" clip-rule="evenodd" d="M267.195 75.1367C267.316 75.332 267.403 75.4733 267.631 75.4733C267.631 75.8433 267.723 76.3058 267.815 76.7682C267.908 77.2307 268 77.6931 268 78.0631V229H253.972V85.0925H197.493C193.433 85.0925 190.479 81.7628 190.479 78.0631V13.6888H41.7135C26.5785 13.6888 14.0275 25.8977 14.0275 41.4363V298.194C14.0275 313.362 26.2094 325.941 41.7135 325.941H179V340H41.7135C18.8265 340 0 321.132 0 298.194V41.8063C0 18.8683 18.8265 0 41.7135 0H197.493C198.601 0 199.708 0.369967 200.446 0.739935C200.631 0.739935 200.723 0.832427 200.815 0.924918C200.908 1.01741 201 1.1099 201.185 1.1099C201.369 1.29489 201.646 1.47988 201.923 1.66486C202.2 1.84984 202.477 2.03482 202.661 2.2198L266.154 73.6235C266.339 73.8085 266.431 73.9935 266.523 74.1785C266.616 74.3634 266.708 74.5484 266.893 74.7334C267.034 74.8747 267.121 75.016 267.195 75.1367ZM245.482 71.4037L204.507 25.1578V71.4037H245.482Z" fill="#0088D1"/>
<path d="M254 182H268V228C268 231.866 264.866 235 261 235V235C257.134 235 254 231.866 254 228V182Z" fill="#0088D1"/>
<path d="M140 340V326H186C189.866 326 193 329.134 193 333V333C193 336.866 189.866 340 186 340H140Z" fill="#0088D1"/>
<path d="M269.818 248.547C270.307 248.057 270.888 247.668 271.528 247.402C272.168 247.137 272.853 247 273.546 247C274.238 247 274.924 247.137 275.563 247.402C276.203 247.668 276.784 248.057 277.273 248.547L319.455 290.798C319.945 291.289 320.334 291.871 320.599 292.511C320.864 293.152 321 293.839 321 294.532C321 295.226 320.864 295.912 320.599 296.553C320.334 297.194 319.945 297.776 319.455 298.266L277.273 340.517C276.279 341.479 274.947 342.012 273.565 342C272.182 341.988 270.86 341.432 269.882 340.453C268.904 339.474 268.35 338.149 268.338 336.764C268.326 335.38 268.857 334.046 269.818 333.05L302.999 299.814H210.273C208.874 299.814 207.533 299.257 206.544 298.267C205.556 297.277 205 295.933 205 294.532C205 293.132 205.556 291.788 206.544 290.798C207.533 289.807 208.874 289.251 210.273 289.251H302.999L269.818 256.015C269.328 255.525 268.94 254.943 268.675 254.302C268.41 253.662 268.273 252.975 268.273 252.281C268.273 251.588 268.41 250.901 268.675 250.26C268.94 249.62 269.328 249.037 269.818 248.547Z" fill="#0088D1"/>
</svg>
