<svg version="1.1" id="Accordion" xmlns="http://www.w3.org/2000/svg" xmlns:xlink="http://www.w3.org/1999/xlink" x="0px" y="0px"
	 viewBox="0 0 48 48" style="enable-background:new 0 0 48 48;" xml:space="preserve">
<style type="text/css">
	.st0{fill:none;}
	.st1{fill-rule:evenodd;clip-rule:evenodd;}
	.st2{ fill: #0088d1;}
</style>
<g>
	<g>
		<path class='st2' d="M24,0.9C11.3,0.9,0.9,11.3,0.9,24c0,12.7,10.4,23.1,23.1,23.1c12.7,0,23.1-10.4,23.1-23.1C47.1,11.3,36.7,0.9,24,0.9z
			 M24,44.9C12.5,44.9,3.1,35.5,3.1,24C3.1,12.5,12.5,3.1,24,3.1c11.5,0,20.9,9.4,20.9,20.9C44.9,35.5,35.5,44.9,24,44.9z"/>
	</g>
	<path class='st2' d="M34.2,22.8h-9v-9c0-0.7-0.6-1.3-1.3-1.3s-1.3,0.6-1.3,1.3v9h-9c-0.7,0-1.3,0.6-1.3,1.3s0.6,1.3,1.3,1.3h9v9
		c0,0.7,0.6,1.3,1.3,1.3s1.3-0.6,1.3-1.3v-9h9c0.7,0,1.3-0.6,1.3-1.3S34.9,22.8,34.2,22.8z"/>
</g>
<rect class="st0" width="48" height="48"/>
</svg>