<svg version="1.1" id="breadcrumb" xmlns="http://www.w3.org/2000/svg" xmlns:xlink="http://www.w3.org/1999/xlink" x="0px" y="0px"
	 viewBox="0 0 48 48" style="enable-background:new 0 0 48 48;" xml:space="preserve">
<style type="text/css">
	.st0{fill:none;}
	.st1{fill-rule:evenodd;clip-rule:evenodd;}
	.st2{fill: #0088d1;}
</style>
<g>
	<g>
		<g>
			<path class='st2' d="M0.8,13.1v23.5c0,3.2,2.6,5.9,5.9,5.9h19c3.2,0,5.9-2.6,5.9-5.9v-3.8c0-0.6-0.5-1.2-1.2-1.2s-1.2,0.5-1.2,1.2v3.8
				c0,2-1.6,3.6-3.6,3.6H6.7c-2,0-3.6-1.6-3.6-3.6V13.1c0-2,1.6-3.6,3.6-3.6h19c2,0,3.6,1.6,3.6,3.6v3.8c0,0.6,0.5,1.2,1.2,1.2
				s1.2-0.5,1.2-1.2v-3.8c0-3.2-2.6-5.9-5.9-5.9h-19C3.5,7.2,0.8,9.8,0.8,13.1z"/>
			<path class='st2' d="M37.3,33.5c0.2,0.2,0.5,0.3,0.8,0.3s0.6-0.1,0.8-0.3l7.9-7.9c0.5-0.5,0.5-1.2,0-1.6l-7.9-7.9c-0.5-0.5-1.2-0.5-1.6,0
				s-0.5,1.2,0,1.6l6,6H21.5c-0.6,0-1.2,0.5-1.2,1.2c0,0.6,0.5,1.2,1.2,1.2h21.7l-6,6C36.8,32.4,36.8,33.1,37.3,33.5z"/>
		</g>
	</g>
</g>
<rect y="0" class="st0" width="48" height="48"/>
</svg>