<svg version="1.1" id="template-Driven-Forms" xmlns="http://www.w3.org/2000/svg" xmlns:xlink="http://www.w3.org/1999/xlink" x="0px" y="0px"
	 viewBox="0 0 48 48" style="enable-background:new 0 0 48 48;" xml:space="preserve">
<style type="text/css">
	.st0{fill:none;}
	.st1{fill: #0088d1;}
</style>
<rect class="st0" width="48" height="48"/>
<g id="Line_21">
	<path class='st1' d="M35,25H13c-0.6,0-1-0.4-1-1c0-0.6,0.4-1,1-1h22c0.6,0,1,0.4,1,1C36,24.6,35.6,25,35,25z"/>
</g>
<g id="Path_239">
	<path class='st1' d="M30.7,38.8c-0.3,0-0.5-0.1-0.7-0.3l-4.7-4.8c-0.4-0.4-0.4-1,0-1.4c0.4-0.4,1-0.4,1.4,0l4,4.1l8.6-10.1c0.4-0.4,1-0.4,1.4,0
		s0.4,1,0,1.4l-9.3,10.8C31.3,38.7,31,38.8,30.7,38.8C30.7,38.8,30.7,38.8,30.7,38.8z"/>
</g>
<g id="Line_22">
	<path class='st1' d="M25,30H13c-0.6,0-1-0.4-1-1s0.4-1,1-1h12c0.6,0,1,0.4,1,1S25.6,30,25,30z"/>
</g>
<g id="Rectangle_137" transform="translate(236.899 17.513)">
	<path class='st1' d="M-218.9-5.5v6h-3v-6H-218.9 M-218.9-7.5h-3c-1.1,0-2,0.9-2,2v6c0,1.1,0.9,2,2,2h3c1.1,0,2-0.9,2-2v-6
		C-216.9-6.6-217.8-7.5-218.9-7.5L-218.9-7.5z"/>
</g>
<g id="Rectangle_138" transform="translate(246.5 17.513)">
	<path class='st1' d="M-212.5-5.5v6h-8v-6H-212.5 M-212.5-7.5h-8c-1.1,0-2,0.9-2,2v6c0,1.1,0.9,2,2,2h8c1.1,0,2-0.9,2-2v-6
		C-210.5-6.6-211.4-7.5-212.5-7.5L-212.5-7.5z"/>
</g>
<path class='st1' d="M37,3c-0.8,0-25.9,0-26,0C9.4,3,7,4.1,7,7v34c0,3.2,3.3,4,5,4h13c0.6,0,1-0.4,1-1c0-0.6-0.4-1-1-1H12c-0.1,0-3,0-3-2V7
	c0-1.9,1.7-2,2-2c0,0,25.8,0,26,0c0.3,0,2,0.1,2,2v15c0,0.6,0.4,1,1,1s1-0.4,1-1V7C41,4.1,38.6,3,37,3z"/>
</svg>