<svg version="1.1" xmlns="http://www.w3.org/2000/svg" id="switch" x="0px" y="0px" height='60px' viewBox="0 0 60 60" style="enable-background:new 0 0 60 60;" xml:space="preserve">
                    <style type="text/css">
                    .st0{fill:none;}
                    .st1{fill: #0088d1;}

                  </style> <g> <path class="st1" d="M52.472,0H7.528C3.377,0,0,3.377,0,7.528v44.943C0,56.623,3.377,60,7.528,60h44.943C56.623,60,60,56.623,60,52.472V7.528 C60,3.377,56.623,0,52.472,0z M58,52.472C58,55.52,55.52,58,52.472,58H7.528C4.48,58,2,55.52,2,52.472V7.528C2,4.48,4.48,2,7.528,2 h44.943C55.52,2,58,4.48,58,7.528V52.472z"></path> <path class="st1" d="M16,28h28c6.065,0,11-4.935,11-11S50.065,6,44,6H16C9.935,6,5,10.935,5,17S9.935,28,16,28z M44,10c3.866,0,7,3.134,7,7 c0,3.866-3.134,7-7,7s-7-3.134-7-7C37,13.134,40.134,10,44,10z"></path> <path class="st1" d="M16,35c-4.411,0-8,3.589-8,8s3.589,8,8,8s8-3.589,8-8S20.411,35,16,35z M16,49c-3.309,0-6-2.691-6-6s2.691-6,6-6 s6,2.691,6,6S19.309,49,16,49z"></path> <path class="st1" d="M44,31H16C9.383,31,4,36.383,4,43s5.383,12,12,12h28c6.617,0,12-5.383,12-12S50.617,31,44,31z M44,53H16 c-5.514,0-10-4.486-10-10s4.486-10,10-10h28c5.514,0,10,4.486,10,10S49.514,53,44,53z"></path> </g> <g> </g> <g> </g> <g> </g> <g> </g> <g> </g> <g> </g> <g> </g> <g> </g> <g> </g> <g> </g> <g> </g> <g> </g> <g> </g> <g> </g> <g> </g>
</svg>