<svg id="Layer_1" data-name="Layer 1" xmlns="http://www.w3.org/2000/svg" viewBox="0 0 24 24"><defs><style>.cls-1{fill:#ff7143;}.cls-2{fill:#afafb3;}.cls-3{fill:none;}</style></defs><title>icons</title><path id="Path_159" data-name="Path 159" class="cls-1" d="M20.36,1H3.64A2.65,2.65,0,0,0,1,3.73V16.45A2.5,2.5,0,0,0,3.64,19H9.1l-.78,3H7v1H17V22H15.68l-.77-3h5.45A2.5,2.5,0,0,0,23,16.45V3.73A2.65,2.65,0,0,0,20.36,1ZM9.45,22l.78-3h3.54l.78,3ZM22,16.45A1.56,1.56,0,0,1,20.36,18H3.64A1.56,1.56,0,0,1,2,16.45V15H22ZM22,14H2V4c0-.9.73-2,1.64-2H20.36A1.71,1.71,0,0,1,22,3.73h0Z"/><polygon class="cls-2" points="9.15 5.15 6.29 8 9.15 10.85 9.85 10.15 7.71 8 9.85 5.85 9.15 5.15"/><polygon class="cls-2" points="14.85 5.15 14.15 5.85 16.29 8 14.15 10.15 14.85 10.85 17.71 8 14.85 5.15"/><rect class="cls-2" x="8.19" y="7.5" width="7.62" height="1" transform="translate(-0.08 15.88) rotate(-66.82)"/><rect class="cls-3" width="24" height="24"/></svg>