<svg id="Layer_1" data-name="Layer 1" xmlns="http://www.w3.org/2000/svg" viewBox="0 0 24 24"><defs><style>.cls-1{fill:none;}.cls-2{fill:#04d7fd;}</style></defs><title>icons</title><rect class="cls-1" width="24" height="24"/><g id="reactjs"><path class="cls-2" d="M7.57,21.75a2.15,2.15,0,0,1-1.07-.27c-1.32-.76-1.56-3-.82-5.85C2.83,14.84,1,13.52,1,12S2.83,9.16,5.68,8.37c-.74-2.85-.51-5.09.82-5.85a2.46,2.46,0,0,1,1.89-.16A9.1,9.1,0,0,1,12,4.73a9.1,9.1,0,0,1,3.61-2.37,2.46,2.46,0,0,1,1.89.16c1.33.76,1.56,3,.82,5.85C21.17,9.16,23,10.48,23,12s-1.83,2.84-4.68,3.63c.74,2.85.51,5.09-.82,5.85a2.41,2.41,0,0,1-1.89.15A9,9,0,0,1,12,19.27a9,9,0,0,1-3.61,2.37A3.5,3.5,0,0,1,7.57,21.75ZM6.43,15.82c-.67,2.57-.47,4.45.46,5a1.69,1.69,0,0,0,1.29.08,8.06,8.06,0,0,0,3.27-2.17A23.47,23.47,0,0,1,9.5,16.3,22.46,22.46,0,0,1,6.43,15.82Zm6.12,2.89a8.17,8.17,0,0,0,3.27,2.17,1.69,1.69,0,0,0,1.29-.08c.93-.53,1.13-2.41.46-5a22.46,22.46,0,0,1-3.07.48A23.47,23.47,0,0,1,12.55,18.71Zm-2-2.34A19.17,19.17,0,0,0,12,18.14a19.17,19.17,0,0,0,1.47-1.77A28.83,28.83,0,0,1,10.53,16.37Zm-.59-.81a31.47,31.47,0,0,0,4.12,0c.38-.56.75-1.14,1.1-1.74s.68-1.23,1-1.82c-.29-.59-.61-1.2-1-1.82S14.44,9,14.06,8.44c-.66,0-1.35-.07-2.06-.07h0c-.7,0-1.39,0-2.06.08-.38.55-.75,1.13-1.1,1.73s-.68,1.23-1,1.82c.29.59.61,1.2,1,1.82S9.56,15,9.94,15.56Zm-3.3-.48a20.24,20.24,0,0,0,2.29.38c-.26-.4-.52-.82-.77-1.26s-.49-.86-.71-1.29A20.33,20.33,0,0,0,6.64,15.08Zm9.91-2.17c-.22.43-.46.86-.71,1.29h0c-.25.44-.51.86-.77,1.26a20.24,20.24,0,0,0,2.29-.38A20.33,20.33,0,0,0,16.55,12.91ZM5.89,9.12a13.11,13.11,0,0,0-1.25.4c-1.81.69-2.85,1.59-2.85,2.48,0,1.07,1.52,2.18,4.1,2.89A21.6,21.6,0,0,1,7,12,22,22,0,0,1,5.89,9.12ZM17,12a21.6,21.6,0,0,1,1.12,2.89c2.58-.71,4.1-1.82,4.1-2.89s-1.52-2.18-4.1-2.89A21.6,21.6,0,0,1,17,12ZM6.64,8.93a21,21,0,0,0,.81,2.16c.22-.43.46-.86.71-1.29s.51-.85.77-1.26A19.5,19.5,0,0,0,6.64,8.93Zm8.43-.39c.26.4.52.82.77,1.26h0c.25.43.49.86.71,1.29a20.33,20.33,0,0,0,.81-2.17A20.24,20.24,0,0,0,15.07,8.54ZM14.5,7.7a22.46,22.46,0,0,1,3.07.48c.67-2.57.47-4.45-.46-5a1.69,1.69,0,0,0-1.29-.08,8.06,8.06,0,0,0-3.27,2.17A23.47,23.47,0,0,1,14.5,7.7ZM7.58,3a1.41,1.41,0,0,0-.69.17c-.93.53-1.13,2.41-.46,5A22.46,22.46,0,0,1,9.5,7.7a23.47,23.47,0,0,1,1.95-2.41A8.17,8.17,0,0,0,8.18,3.12,2.24,2.24,0,0,0,7.58,3ZM12,7.59h0c.5,0,1,0,1.47,0A19.17,19.17,0,0,0,12,5.86a19.17,19.17,0,0,0-1.47,1.77C11,7.6,11.5,7.59,12,7.59Zm0,6.81a2.42,2.42,0,0,1-1.7-.7A2.35,2.35,0,0,1,9.59,12,2.41,2.41,0,0,1,12,9.6h0a2.42,2.42,0,0,1,1.71.7A2.34,2.34,0,0,1,14.42,12,2.41,2.41,0,0,1,12,14.4Zm0-4h0A1.63,1.63,0,0,0,10.37,12a1.6,1.6,0,0,0,.48,1.15,1.65,1.65,0,0,0,1.15.47h0A1.63,1.63,0,0,0,13.64,12,1.62,1.62,0,0,0,12,10.38Z"/></g></svg>