<svg id="Layer_1" data-name="Layer 1" xmlns="http://www.w3.org/2000/svg" viewBox="0 0 24 24"><defs><style>.cls-1{fill:none;}.cls-2{fill:#b448d2;}.cls-3{fill:#f4f4f4;}.cls-4{fill:#dedede;}.cls-5{fill:#c8c8c8;}</style></defs><title>icons</title><rect class="cls-1" width="24" height="24"/><path class="cls-2" d="M22.51,14.69H15.19L21.88,8a.5.5,0,0,0,0-.7L16.7,2.12A.5.5,0,0,0,16.35,2a.52.52,0,0,0-.35.14L9.31,8.81V1.49A.49.49,0,0,0,8.82,1H1.49A.49.49,0,0,0,1,1.49V18.84A4.17,4.17,0,0,0,5.16,23H22.51a.49.49,0,0,0,.49-.49V15.18A.49.49,0,0,0,22.51,14.69ZM9.31,18.84V10.19l7-7,4.49,4.49L9.3,19.2C9.31,19.08,9.31,19,9.31,18.84ZM2,2H8.33V4.91H2ZM2,5.89H8.33V8.82H2ZM2,9.8H8.33v2.93H2ZM5.16,22A3.19,3.19,0,0,1,2,18.84V13.71H8.33v5.13A3.18,3.18,0,0,1,5.16,22ZM22,22H7.86l6.35-6.35H22ZM5.16,17.13a1.71,1.71,0,1,0,1.71,1.71A1.71,1.71,0,0,0,5.16,17.13Zm0,2.45a.74.74,0,1,1,.73-.74A.74.74,0,0,1,5.16,19.58Z"/><rect class="cls-3" x="1.98" y="1.98" width="6.35" height="2.93"/><rect class="cls-4" x="1.98" y="5.89" width="6.35" height="2.93"/><rect class="cls-5" x="1.98" y="9.8" width="6.35" height="2.93"/></svg>