<svg width="340" height="340" viewBox="0 0 340 340" fill="none" xmlns="http://www.w3.org/2000/svg">
<path d="M219.246 70.8334C219.246 61.0267 216.338 51.4403 210.89 43.2863C205.441 35.1324 197.698 28.7772 188.637 25.0243C179.577 21.2715 169.608 20.2896 159.989 22.2028C150.371 24.1159 141.536 28.8383 134.602 35.7726C127.668 42.707 122.945 51.5419 121.032 61.1601C119.119 70.7784 120.101 80.7479 123.854 89.8081C127.606 98.8682 133.962 106.612 142.116 112.06C150.27 117.509 159.856 120.417 169.663 120.417C182.808 120.401 195.411 115.172 204.706 105.877C214.001 96.5813 219.23 83.9788 219.246 70.8334ZM134.246 70.8334C134.246 63.8286 136.323 56.9811 140.215 51.1569C144.106 45.3327 149.638 40.7932 156.109 38.1126C162.581 35.432 169.702 34.7307 176.572 36.0972C183.442 37.4638 189.753 40.8369 194.706 45.79C199.659 50.7431 203.032 57.0537 204.399 63.9239C205.765 70.7941 205.064 77.9152 202.383 84.3867C199.703 90.8583 195.163 96.3896 189.339 100.281C183.515 104.173 176.667 106.25 169.663 106.25C160.272 106.241 151.269 102.507 144.629 95.8671C137.989 89.2271 134.255 80.2238 134.246 70.8334ZM231.338 249.992C231.995 250.649 232.517 251.43 232.873 252.289C233.229 253.149 233.412 254.07 233.412 255C233.412 255.93 233.229 256.851 232.873 257.71C232.517 258.569 231.995 259.35 231.338 260.008L174.671 316.674C174.013 317.332 173.233 317.854 172.373 318.21C171.514 318.566 170.593 318.749 169.663 318.749C168.733 318.749 167.812 318.566 166.953 318.21C166.093 317.854 165.313 317.332 164.655 316.674L107.988 260.008C106.698 258.672 105.984 256.882 106 255.025C106.016 253.168 106.761 251.391 108.075 250.078C109.388 248.765 111.165 248.02 113.022 248.004C114.879 247.988 116.668 248.702 118.004 249.992L162.579 294.568V170C162.579 168.121 163.326 166.32 164.654 164.991C165.982 163.663 167.784 162.917 169.663 162.917C171.541 162.917 173.343 163.663 174.671 164.991C176 166.32 176.746 168.121 176.746 170V294.568L221.321 249.992C221.979 249.334 222.759 248.812 223.619 248.456C224.478 248.1 225.399 247.917 226.329 247.917C227.259 247.917 228.18 248.1 229.04 248.456C229.899 248.812 230.68 249.334 231.338 249.992Z" fill="#BDBDBD"/>
</svg>
