<?xml version="1.0" encoding="UTF-8"?>
<!-- Generator: Adobe Illustrator 23.0.5, SVG Export Plug-In . SVG Version: 6.00 Build 0)  -->
<svg fill="#c2012e" version="1.1" id="Layer_1" xmlns="http://www.w3.org/2000/svg" xmlns:xlink="http://www.w3.org/1999/xlink" x="0px" y="0px" viewBox="0 0 48 48" style="enable-background:new 0 0 48 48;" xml:space="preserve">
<style type="text/css">
	.st0{fill:none;}
	.st1{fill-rule:evenodd;clip-rule:evenodd;}
</style>
<path class="st0" d="M0,0h48v47.9H0V0z"/>
<path d="M14.8,8.1h18.4v6.7h3.7V7.4c0-2-1.7-3.7-3.7-3.7l-18.4,0c-2,0-3.7,1.7-3.7,3.7v7.4h3.7V8.1z M30.3,32.4l8.4-8.4l-8.4-8.4  l-2.6,2.6l5.8,5.8l-5.8,5.8L30.3,32.4z M20.3,29.8L14.5,24l5.8-5.8l-2.6-2.6L9.3,24l8.4,8.4L20.3,29.8z M33.2,39.9H14.8v-6.7h-3.7  v7.4c0,2,1.7,3.7,3.7,3.7h18.4c2,0,3.7-1.7,3.7-3.7v-7.4h-3.7V39.9z"/>
</svg>