<svg width="22" height="22" viewBox="0 0 22 22" fill="none" xmlns="http://www.w3.org/2000/svg">
<path d="M16.773 19.0274C16.6543 19.0274 16.5582 19.1235 16.5582 19.2422V20.2927H2.83972V3.25415H5.59333V4.57673C5.59333 4.69541 5.6895 4.79157 5.80817 4.79157H13.5896C13.7083 4.79157 13.8045 4.69541 13.8045 4.57673V3.25415H16.5582V8.81525C16.5582 8.93393 16.6543 9.0301 16.773 9.0301C16.8917 9.0301 16.9879 8.93393 16.9879 8.81525V3.03931C16.9879 2.92063 16.8917 2.82446 16.773 2.82446H12.9132V1.49243C12.9132 1.37375 12.8171 1.27759 12.6984 1.27759H6.69952C6.58084 1.27759 6.48467 1.37375 6.48467 1.49243V2.82446H2.62488C2.5062 2.82446 2.41003 2.92063 2.41003 3.03931V20.5076C2.41003 20.6262 2.5062 20.7224 2.62488 20.7224H16.773C16.8917 20.7224 16.9879 20.6262 16.9879 20.5076V19.2422C16.9879 19.1235 16.8917 19.0274 16.773 19.0274ZM12.4835 2.82446H11.5266V1.70728H12.4835V2.82446ZM8.30088 2.82446V1.70728H11.0969V2.82446H8.30088ZM6.91436 1.70736H7.87119V2.82455H6.91436V1.70736ZM13.3748 3.25415V4.36188H6.02302V3.25415H13.3748Z" fill="#BDBDBD"/>
<path d="M14.2033 7.25708C14.2033 7.1384 14.1071 7.04224 13.9885 7.04224H10.9535C10.8348 7.04224 10.7386 7.1384 10.7386 7.25708C10.7386 7.37576 10.8348 7.47192 10.9535 7.47192H13.9885C14.1071 7.47192 14.2033 7.37576 14.2033 7.25708Z" fill="#BDBDBD"/>
<path d="M8.08606 7.47192H10.0306C10.1492 7.47192 10.2454 7.37576 10.2454 7.25708C10.2454 7.1384 10.1492 7.04224 10.0306 7.04224H8.08606C7.96738 7.04224 7.87122 7.1384 7.87122 7.25708C7.87122 7.37576 7.96738 7.47192 8.08606 7.47192Z" fill="#BDBDBD"/>
<path d="M8.08606 8.54883H12.1023C12.221 8.54883 12.3172 8.45266 12.3172 8.33398C12.3172 8.2153 12.221 8.11914 12.1023 8.11914H8.08606C7.96738 8.11914 7.87122 8.2153 7.87122 8.33398C7.87122 8.45266 7.96738 8.54883 8.08606 8.54883Z" fill="#BDBDBD"/>
<path d="M12.4647 11.6755C12.4647 11.5569 12.3686 11.4607 12.2499 11.4607H8.08606C7.96738 11.4607 7.87122 11.5569 7.87122 11.6755C7.87122 11.7942 7.96738 11.8904 8.08606 11.8904H12.2499C12.3686 11.8904 12.4647 11.7942 12.4647 11.6755Z" fill="#BDBDBD"/>
<path d="M8.08606 12.9675H9.83815C9.95683 12.9675 10.053 12.8714 10.053 12.7527C10.053 12.634 9.95683 12.5378 9.83815 12.5378H8.08606C7.96738 12.5378 7.87122 12.634 7.87122 12.7527C7.87122 12.8714 7.96738 12.9675 8.08606 12.9675Z" fill="#BDBDBD"/>
<path d="M12.0797 15.8794H10.9535C10.8348 15.8794 10.7386 15.9756 10.7386 16.0942C10.7386 16.2129 10.8348 16.3091 10.9535 16.3091H12.0797C12.1984 16.3091 12.2945 16.2129 12.2945 16.0942C12.2945 15.9756 12.1984 15.8794 12.0797 15.8794Z" fill="#BDBDBD"/>
<path d="M8.08606 16.3091H10.0306C10.1492 16.3091 10.2454 16.2129 10.2454 16.0942C10.2454 15.9756 10.1492 15.8794 10.0306 15.8794H8.08606C7.96738 15.8794 7.87122 15.9756 7.87122 16.0942C7.87122 16.2129 7.96738 16.3091 8.08606 16.3091Z" fill="#BDBDBD"/>
<path d="M8.08606 17.386H12.6422C12.7609 17.386 12.8571 17.2898 12.8571 17.1711C12.8571 17.0525 12.7609 16.9563 12.6422 16.9563H8.08606C7.96738 16.9563 7.87122 17.0525 7.87122 17.1711C7.87122 17.2898 7.96738 17.386 8.08606 17.386Z" fill="#BDBDBD"/>
<path d="M11.7497 12.9675C11.8684 12.9675 11.9646 12.8714 11.9646 12.7527C11.9646 12.634 11.8684 12.5378 11.7497 12.5378H10.8397C10.721 12.5378 10.6248 12.634 10.6248 12.7527C10.6248 12.8714 10.721 12.9675 10.8397 12.9675H11.7497Z" fill="#BDBDBD"/>
<path d="M16.7731 9.45996C14.2538 9.45996 12.2041 11.5096 12.2041 14.0289C12.2041 16.5483 14.2538 18.5979 16.7731 18.5979C19.2923 18.5979 21.3419 16.5483 21.3419 14.0289C21.3419 11.5096 19.2923 9.45996 16.7731 9.45996ZM16.7731 18.1681C14.4906 18.1681 12.6338 16.3112 12.6338 14.0288C12.6338 11.7464 14.4906 9.88956 16.7731 9.88956C19.0555 9.88956 20.9122 11.7464 20.9122 14.0288C20.9122 16.3112 19.0554 18.1681 16.7731 18.1681Z" fill="#BDBDBD"/>
<path d="M6.69275 9.24185H4.23004C4.11136 9.24185 4.0152 9.14569 4.0152 9.02701V6.56421C4.0152 6.44553 4.11136 6.34937 4.23004 6.34937H6.69275C6.81143 6.34937 6.9076 6.44553 6.9076 6.56421V9.02692C6.9076 9.1456 6.81143 9.24185 6.69275 9.24185ZM4.44489 8.81216H6.47791V6.77905H4.44489V8.81216Z" fill="#BDBDBD"/>
<path d="M5.29475 8.42562C5.23777 8.42562 5.18312 8.40293 5.14281 8.36271L4.64549 7.86531C4.56153 7.78143 4.56153 7.64539 4.64549 7.56143C4.72945 7.47756 4.8654 7.47756 4.94928 7.56143L5.29475 7.9069L5.9734 7.22825C6.05736 7.14429 6.19331 7.14429 6.27719 7.22825C6.36115 7.31213 6.36115 7.44817 6.27719 7.53204L5.4466 8.36263C5.40638 8.40302 5.35172 8.42562 5.29475 8.42562Z" fill="#BDBDBD"/>
<path d="M6.69275 13.6605H4.23004C4.11136 13.6605 4.0152 13.5643 4.0152 13.4456V10.9829C4.0152 10.8642 4.11136 10.7681 4.23004 10.7681H6.69275C6.81143 10.7681 6.9076 10.8642 6.9076 10.9829V13.4456C6.9076 13.5642 6.81143 13.6605 6.69275 13.6605ZM4.44489 13.2308H6.47791V11.1978H4.44489V13.2308Z" fill="#BDBDBD"/>
<path d="M5.29475 12.8442C5.23975 12.8442 5.18483 12.8233 5.14281 12.7813L4.64549 12.284C4.56153 12.2001 4.56153 12.0641 4.64549 11.9802C4.72945 11.8963 4.8654 11.8963 4.94928 11.9802L5.29475 12.3256L5.9734 11.647C6.05736 11.563 6.19331 11.563 6.27719 11.647C6.36115 11.7308 6.36115 11.8669 6.27719 11.9507L5.4466 12.7813C5.40475 12.8233 5.34975 12.8442 5.29475 12.8442Z" fill="#BDBDBD"/>
<path d="M6.69275 18.0789H4.23004C4.11136 18.0789 4.0152 17.9828 4.0152 17.8641V15.4014C4.0152 15.2827 4.11136 15.1865 4.23004 15.1865H6.69275C6.81143 15.1865 6.9076 15.2827 6.9076 15.4014V17.8641C6.9076 17.9827 6.81143 18.0789 6.69275 18.0789ZM4.44489 17.6492H6.47791V15.6162H4.44489V17.6492Z" fill="#BDBDBD"/>
<path d="M5.29475 17.2629C5.23975 17.2629 5.18483 17.242 5.14281 17.2L4.64549 16.7027C4.56153 16.6188 4.56153 16.4828 4.64549 16.3989C4.72945 16.315 4.8654 16.315 4.94928 16.3989L5.29475 16.7443L5.9734 16.0657C6.05736 15.9817 6.19331 15.9817 6.27719 16.0657C6.36115 16.1495 6.36115 16.2856 6.27719 16.3694L5.4466 17.2C5.40475 17.242 5.34975 17.2629 5.29475 17.2629Z" fill="#BDBDBD"/>
<path d="M19.4519 16.3587H16.4531C16.3344 16.3587 16.2383 16.2625 16.2383 16.1439V14.7858C16.2383 14.3883 16.5617 14.0649 16.9591 14.0649H18.9459C19.3434 14.0649 19.6668 14.3883 19.6668 14.7858V16.1439C19.6668 16.2625 19.5705 16.3587 19.4519 16.3587ZM16.668 15.929H19.2371V14.7858C19.2371 14.6253 19.1064 14.4946 18.9459 14.4946H16.9591C16.7986 14.4946 16.668 14.6253 16.668 14.7858V15.929Z" fill="#BDBDBD"/>
<path d="M17.9525 13.8479C17.3599 13.8479 16.878 13.3659 16.878 12.7735C16.878 12.181 17.3599 11.699 17.9525 11.699C18.545 11.699 19.0269 12.181 19.0269 12.7735C19.0269 13.3659 18.545 13.8479 17.9525 13.8479ZM17.9525 12.1287C17.5969 12.1287 17.3077 12.4179 17.3077 12.7735C17.3077 13.129 17.5969 13.4182 17.9525 13.4182C18.308 13.4182 18.5973 13.129 18.5973 12.7735C18.5973 12.4179 18.308 12.1287 17.9525 12.1287Z" fill="#BDBDBD"/>
<path d="M15.6659 15.9629H14.0942C13.9755 15.9629 13.8793 15.8668 13.8793 15.7481V14.39C13.8793 13.9926 14.2027 13.6692 14.6002 13.6692H16.0358C16.1545 13.6692 16.2507 13.7654 16.2507 13.884C16.2507 14.0027 16.1545 14.0989 16.0358 14.0989H14.6002C14.4396 14.0989 14.309 14.2295 14.309 14.39V15.5333H15.6659C15.7846 15.5333 15.8807 15.6294 15.8807 15.7481C15.8807 15.8668 15.7846 15.9629 15.6659 15.9629Z" fill="#BDBDBD"/>
<path d="M15.5936 13.4521C15.001 13.4521 14.5191 12.9702 14.5191 12.3777C14.5191 11.7852 15.001 11.3032 15.5936 11.3032C16.186 11.3032 16.668 11.7852 16.668 12.3777C16.668 12.9702 16.186 13.4521 15.5936 13.4521ZM15.5936 11.7328C15.2381 11.7328 14.9488 12.0221 14.9488 12.3776C14.9488 12.7331 15.2381 13.0223 15.5936 13.0223C15.9491 13.0223 16.2383 12.7331 16.2383 12.3776C16.2383 12.0221 15.9491 11.7328 15.5936 11.7328Z" fill="#BDBDBD"/>
</svg>
