<svg version="1.1" id="dialog" xmlns="http://www.w3.org/2000/svg" xmlns:xlink="http://www.w3.org/1999/xlink" x="0px" y="0px"
	 viewBox="0 0 48 48" style="enable-background:new 0 0 48 48;" xml:space="preserve">
<style type="text/css">
	.st0{fill:none;}
	.st1{fill-rule:evenodd;clip-rule:evenodd; fill: #bdbdbd;}
</style>
<g>
	<g>
		<path class="st1" d="M46.5,23.4c-0.5,0-0.9,0.4-0.9,0.9V40H2.4v-1.8c0-0.5-0.4-0.9-0.9-0.9s-0.9,0.4-0.9,0.9v2.7
			c0,0.5,0.4,0.9,0.9,0.9h45.1c0.5,0,0.9-0.4,0.9-0.9V24.3C47.4,23.8,47,23.4,46.5,23.4z"/>
		<path class="st1" d="M46.5,6.1H1.5C1,6.1,0.6,6.5,0.6,7.1v23.8c0,0.5,0.4,0.9,0.9,0.9s0.9-0.4,0.9-0.9V15.2h43.2V17
			c0,0.5,0.4,0.9,0.9,0.9s0.9-0.4,0.9-0.9V7.1C47.4,6.5,47,6.1,46.5,6.1z M2.4,13.3V8h43.2v5.4H2.4z"/>
		<path class="st1" d="M5.9,37.4h31.8c0.5,0,0.9-0.4,0.9-0.9c0-0.5-0.4-0.9-0.9-0.9H5.9C5.4,35.6,5,36,5,36.5
			C5,37,5.4,37.4,5.9,37.4z"/>
		<path class="st1" d="M23.2,19.6h19.1c0.5,0,0.9-0.4,0.9-0.9s-0.4-0.9-0.9-0.9H23.2c-0.5,0-0.9,0.4-0.9,0.9S22.7,19.6,23.2,19.6z"
			/>
		<path class="st1" d="M23.2,25.5h19.1c0.5,0,0.9-0.4,0.9-0.9c0-0.5-0.4-0.9-0.9-0.9H23.2c-0.5,0-0.9,0.4-0.9,0.9
			C22.3,25.1,22.7,25.5,23.2,25.5z"/>
		<path class="st1" d="M35.8,9.7h-3.1c-0.5,0-0.9,0.4-0.9,0.9s0.4,0.9,0.9,0.9h3.1c0.5,0,0.9-0.4,0.9-0.9S36.4,9.7,35.8,9.7z"/>
		<path class="st1" d="M23.2,31.5h19.1c0.5,0,0.9-0.4,0.9-0.9c0-0.5-0.4-0.9-0.9-0.9H23.2c-0.5,0-0.9,0.4-0.9,0.9
			C22.3,31.1,22.7,31.5,23.2,31.5z"/>
		<path class="st1" d="M42.3,9.7h-3.1c-0.5,0-0.9,0.4-0.9,0.9s0.4,0.9,0.9,0.9h3.1c0.5,0,0.9-0.4,0.9-0.9S42.8,9.7,42.3,9.7z"/>
		<path class="st1" d="M5.9,31.5h11.9c0.5,0,0.9-0.4,0.9-0.9V18.7c0-0.5-0.4-0.9-0.9-0.9H5.9c-0.5,0-0.9,0.4-0.9,0.9v11.9
			C5,31.1,5.4,31.5,5.9,31.5z M6.8,19.6h10v10h-10V19.6z"/>
		<path class="st1" d="M1.5,35.5c0.5,0,0.9-0.4,0.9-0.9S2,33.6,1.5,33.6S0.6,34,0.6,34.5S1,35.5,1.5,35.5z"/>
		<path class="st1" d="M46.5,19.7c-0.5,0-0.9,0.4-0.9,0.9c0,0.5,0.4,0.9,0.9,0.9s0.9-0.4,0.9-0.9C47.4,20.1,47,19.7,46.5,19.7z"/>
	</g>
</g>
<rect class="st0" width="48" height="48"/>
</svg>