<svg width="22" height="22" viewBox="0 0 22 22" fill="none" xmlns="http://www.w3.org/2000/svg">
<g clip-path="url(#clip0_1380_319)">
<path d="M20 0H2.00002C0.896954 0 0 0.896954 0 2.00002V20C0 21.103 0.896954 22 2.00002 22H20C21.103 22 22 21.1031 22 20V2.00002C22 0.896954 21.103 0 20 0ZM21 20C21 20.5513 20.5513 21 20 21H2.00002C1.44877 21 1.00003 20.5513 1.00003 20V9.00001H21V20ZM21 8.00002H0.999985V5.00002H21V8.00002ZM21 3.99999H0.999985V2.00002C0.999985 1.44877 1.44872 1.00003 1.99997 1.00003H20C20.5512 1.00003 21 1.44877 21 2.00002V3.99999H21Z" fill="#0088D1"/>
<path d="M2.50002 3.00003C2.77617 3.00003 3.00003 2.77617 3.00003 2.50002C3.00003 2.22386 2.77617 2 2.50002 2C2.22386 2 2 2.22386 2 2.50002C2 2.77617 2.22386 3.00003 2.50002 3.00003Z" fill="#0088D1"/>
<path d="M4.50002 3.00003C4.77617 3.00003 5.00003 2.77617 5.00003 2.50002C5.00003 2.22386 4.77617 2 4.50002 2C4.22386 2 4 2.22386 4 2.50002C4 2.77617 4.22386 3.00003 4.50002 3.00003Z" fill="#0088D1"/>
<path d="M6.50002 3.00003C6.77617 3.00003 7.00003 2.77617 7.00003 2.50002C7.00003 2.22386 6.77617 2 6.50002 2C6.22387 2 6 2.22386 6 2.50002C6 2.77617 6.22387 3.00003 6.50002 3.00003Z" fill="#0088D1"/>
<path d="M6.50002 6.99998H15.5C15.7764 6.99998 16 6.77634 16 6.49997C16 6.22359 15.7764 6 15.5 6H6.50002C6.22364 6 6 6.22364 6 6.50002C6 6.77639 6.22364 6.99998 6.50002 6.99998Z" fill="#0088D1"/>
</g>
<defs>
<clipPath id="clip0_1380_319">
<rect width="22" height="22" fill="white"/>
</clipPath>
</defs>
</svg>
