<svg version="1.1" id="pagination" xmlns="http://www.w3.org/2000/svg" xmlns:xlink="http://www.w3.org/1999/xlink" x="0px" y="0px"
	 viewBox="0 0 48 48" style="enable-background:new 0 0 48 48;" xml:space="preserve">
<style type="text/css">
	.st0{fill:none;}
	.st1{fill: #bdbdbd;}
</style>
<rect class="st0" width="48" height="48"/>
<g id="Ellipse_59" transform="translate(551.875 26.9)">
	<circle class='st1' cx="-543.9" cy="-2.9" r="6"/>
</g>
<g id="Ellipse_61" transform="translate(579.925 26.9)">
	<g>
		<path class='st1' d="M-539.9-6.2c1.8,0,3.3,1.5,3.3,3.3s-1.5,3.3-3.3,3.3s-3.3-1.5-3.3-3.3S-541.8-6.2-539.9-6.2 M-539.9-7.9c-2.8,0-5,2.2-5,5
			s2.2,5,5,5s5-2.2,5-5S-537.2-7.9-539.9-7.9L-539.9-7.9z"/>
	</g>
</g>
<g id="Ellipse_61_1_" transform="translate(579.925 26.9)">
	<g>
		<path class='st1' d="M-555.9-6.2c1.8,0,3.3,1.5,3.3,3.3s-1.5,3.3-3.3,3.3s-3.3-1.5-3.3-3.3S-557.8-6.2-555.9-6.2 M-555.9-7.9c-2.8,0-5,2.2-5,5
			s2.2,5,5,5s5-2.2,5-5S-553.2-7.9-555.9-7.9L-555.9-7.9z"/>
	</g>
</g>
</svg>