<svg height="511pt" viewBox="1 -16 511.999 511" width="511pt" xmlns="http://www.w3.org/2000/svg"><path style="fill: #87878d;" d="m92.308594 52.734375c0-13.871094-11.28125-25.15625-25.152344-25.15625s-25.15625 11.285156-25.15625 25.15625c0 13.867187 11.285156 25.152344 25.15625 25.152344 13.867188 0 25.152344-11.285157 25.152344-25.152344zm-35.308594 0c0-5.601563 4.558594-10.15625 10.15625-10.15625s10.152344 4.554687 10.152344 10.15625c0 5.597656-4.554688 10.152344-10.152344 10.152344s-10.15625-4.554688-10.15625-10.152344zm0 0"/><path style="fill: #87878d;" d="m126.914062 77.886719c13.871094 0 25.15625-11.285157 25.15625-25.152344 0-13.871094-11.285156-25.15625-25.15625-25.15625-13.871093 0-25.152343 11.285156-25.152343 25.15625 0 13.867187 11.28125 25.152344 25.152343 25.152344zm0-35.308594c5.601563 0 10.15625 4.554687 10.15625 10.15625 0 5.597656-4.558593 10.152344-10.15625 10.152344-5.597656 0-10.152343-4.554688-10.152343-10.152344 0-5.601563 4.554687-10.15625 10.152343-10.15625zm0 0"/><path style="fill: #87878d;" d="m186.675781 77.886719c13.867188 0 25.152344-11.285157 25.152344-25.152344 0-13.871094-11.285156-25.15625-25.152344-25.15625-13.871093 0-25.15625 11.285156-25.15625 25.15625 0 13.867187 11.285157 25.152344 25.15625 25.152344zm0-35.308594c5.597657 0 10.152344 4.554687 10.152344 10.15625 0 5.597656-4.554687 10.152344-10.152344 10.152344-5.601562 0-10.15625-4.554688-10.15625-10.152344 0-5.601563 4.554688-10.15625 10.15625-10.15625zm0 0"/><path style="fill: #87878d;" d="m269.667969 60.234375h182.664062c4.144531 0 7.5-3.359375 7.5-7.5 0-4.144531-3.355469-7.5-7.5-7.5h-182.664062c-4.144531 0-7.5 3.355469-7.5 7.5 0 4.140625 3.355469 7.5 7.5 7.5zm0 0"/><path style="fill: #87878d;" d="m480.683594.5h-449.367188c-17.265625 0-31.316406 14.046875-31.316406 31.316406v417.25c0 17.269532 14.050781 31.316406 31.316406 31.316406h449.367188c17.265625 0 31.316406-14.046874 31.316406-31.316406v-417.25c0-17.269531-14.050781-31.316406-31.316406-31.316406zm0 464.882812h-449.367188c-8.996094 0-16.316406-7.320312-16.316406-16.316406v-344.101562h41.808594c4.144531 0 7.5-3.359375 7.5-7.5 0-4.144532-3.355469-7.5-7.5-7.5h-41.808594v-58.148438c0-8.996094 7.320312-16.316406 16.316406-16.316406h449.367188c8.996094 0 16.316406 7.320312 16.316406 16.316406v58.148438h-412.191406c-4.140625 0-7.5 3.355468-7.5 7.5 0 4.140625 3.359375 7.5 7.5 7.5h412.191406v344.101562c0 8.996094-7.320312 16.316406-16.316406 16.316406zm0 0"/><path style="fill: #87878d;" d="m452.929688 209.71875h-55.542969c-5.40625 0-10.355469 1.988281-14.152344 5.277344-3.796875-3.285156-8.75-5.277344-14.152344-5.277344h-55.542969c-5.40625 0-10.355468 1.988281-14.15625 5.277344-3.796874-3.289063-8.746093-5.277344-14.152343-5.277344h-55.542969c-5.40625 0-10.355469 1.988281-14.152344 5.277344-3.800781-3.285156-8.75-5.277344-14.152344-5.277344h-55.542968c-5.40625 0-10.355469 1.988281-14.15625 5.277344-3.796875-3.285156-8.746094-5.277344-14.152344-5.277344h-55.542969c-11.941406 0-21.65625 9.710938-21.65625 21.652344v115.6875c0 11.941406 9.714844 21.652344 21.65625 21.652344h55.542969c5.40625 0 10.355469-1.988282 14.152344-5.277344 3.796875 3.285156 8.746094 5.277344 14.152344 5.277344h55.542968c5.40625 0 10.355469-1.988282 14.152344-5.277344 3.796875 3.285156 8.75 5.277344 14.152344 5.277344h12.316406c4.144531 0 7.5-3.355469 7.5-7.5 0-4.140626-3.355469-7.5-7.5-7.5h-12.3125c-3.667969 0-6.652344-2.984376-6.652344-6.652344v-115.6875c0-3.667969 2.984375-6.652344 6.652344-6.652344h55.542969c3.667969 0 6.652343 2.984375 6.652343 6.652344v115.6875c0 3.667968-2.984374 6.65625-6.652343 6.65625h-15.230469c-4.144531 0-7.5 3.355468-7.5 7.5 0 4.140625 3.355469 7.5 7.5 7.5h15.230469c5.40625 0 10.355469-1.992188 14.152343-5.28125 3.796876 3.289062 8.75 5.28125 14.152344 5.28125h55.542969c5.40625 0 10.355469-1.992188 14.15625-5.28125 3.796875 3.289062 8.746094 5.28125 14.152344 5.28125h55.542969c11.9375 0 21.652343-9.714844 21.652343-21.65625v-115.6875c0-11.941406-9.714843-21.652344-21.652343-21.652344zm-335.398438 143.996094h-55.542969c-3.671875 0-6.65625-2.988282-6.65625-6.65625v-115.6875c0-3.667969 2.984375-6.652344 6.65625-6.652344h55.542969c3.667969 0 6.652344 2.984375 6.652344 6.652344v115.6875c0 3.671875-2.984375 6.65625-6.652344 6.65625zm83.847656 0h-55.542968c-3.667969 0-6.652344-2.988282-6.652344-6.65625v-115.6875c0-3.667969 2.984375-6.652344 6.652344-6.652344h55.542968c3.671875 0 6.652344 2.984375 6.652344 6.652344v115.6875c0 3.671875-2.980469 6.65625-6.652344 6.65625zm167.699219 0h-55.542969c-3.667968 0-6.652344-2.988282-6.652344-6.65625v-115.6875c0-3.667969 2.984376-6.652344 6.652344-6.652344h55.542969c3.671875 0 6.65625 2.984375 6.65625 6.652344v115.6875c0 3.671875-2.984375 6.65625-6.65625 6.65625zm90.503906-6.65625c0 3.667968-2.984375 6.65625-6.652343 6.65625h-55.542969c-3.667969 0-6.652344-2.988282-6.652344-6.65625v-115.6875c0-3.667969 2.984375-6.652344 6.652344-6.652344h55.542969c3.667968 0 6.652343 2.984375 6.652343 6.652344zm0 0"/></svg>