<svg version="1.1" id="sortable-Table" xmlns="http://www.w3.org/2000/svg" xmlns:xlink="http://www.w3.org/1999/xlink" x="0px" y="0px"
	 viewBox="0 0 48 48" style="enable-background:new 0 0 48 48;" xml:space="preserve">
<style type="text/css">
	.st0{fill:none;}
	.st1{fill: #bdbdbd;}
</style>
<rect class="st0" width="48" height="48"/>
<path class="st1" d="M41.7,10.3c-0.4-0.4-1-0.4-1.4,0l-2.8,2.8l-2.8-2.8c-0.4-0.4-1-0.4-1.4,0s-0.4,1,0,1.4l3.5,3.5c0.2,0.2,0.5,0.3,0.7,0.3
	s0.5-0.1,0.7-0.3l3.5-3.5C42.1,11.3,42.1,10.7,41.7,10.3z"/>
<path class="st1" d="M42.4,1H5.6C3,1,1,3,1,5.6v36.8C1,45,3,47,5.6,47h36.8c2.5,0,4.6-2,4.6-4.6V5.6C47,3,45,1,42.4,1z M13,36v-7h15v7H13z
	 M28,38v7H13v-7H28z M11,36H3v-7h8V36z M28,20v7H13v-7H28z M30,29h15v7H30V29z M30,27v-7h15v7H30z M3,5.6C3,4.2,4.2,3,5.6,3h36.8
	C43.8,3,45,4.2,45,5.6V18H3V5.6z M11,20v7H3v-7H11z M3,42.4V38h8v7H5.6C4.2,45,3,43.8,3,42.4z M42.4,45H30v-7h15v4.4
	C45,43.8,43.8,45,42.4,45z"/>
<g>
	<path class="st1" d="M37.5,14c-0.6,0-1-0.4-1-1V6c0-0.6,0.4-1,1-1s1,0.4,1,1v7C38.5,13.6,38.1,14,37.5,14z"/>
</g>
</svg>