<svg version="1.1" id="spinner" xmlns="http://www.w3.org/2000/svg" xmlns:xlink="http://www.w3.org/1999/xlink" x="0px" y="0px"
	 viewBox="0 0 48 48" style="enable-background:new 0 0 48 48;" xml:space="preserve">
<style type="text/css">
	.st0{fill:none;}
	.st1{fill-rule:evenodd;clip-rule:evenodd;}
	.st2{fill: #bdbdbd;}
</style>
<g>
	<g>
		<g>
			<path class='st2' d="M12.1,33.6c-1.1,0-2.1,0.4-2.9,1.2C8.4,35.6,8,36.6,8,37.8c0,1.1,0.4,2.1,1.2,2.9c0.8,0.8,1.8,1.2,2.9,1.2
				c1.1,0,2.1-0.4,2.9-1.2c0.8-0.8,1.2-1.8,1.2-2.9c0-1.1-0.4-2.1-1.2-2.9C14.2,34,13.2,33.6,12.1,33.6z"/>
			<path class='st2' d="M11.2,24.9c0-1.3-0.4-2.3-1.3-3.2c-0.9-0.9-2-1.3-3.2-1.3c-1.3,0-2.3,0.4-3.2,1.3c-0.9,0.9-1.3,2-1.3,3.2
				c0,1.3,0.4,2.3,1.3,3.2c0.9,0.9,2,1.3,3.2,1.3c1.3,0,2.3-0.4,3.2-1.3C10.7,27.3,11.2,26.2,11.2,24.9z"/>
			<path class='st2' d="M37.8,14.4c0.6,0,1.2-0.2,1.6-0.7c0.4-0.4,0.7-1,0.7-1.6c0-0.6-0.2-1.2-0.7-1.6c-0.4-0.4-1-0.7-1.6-0.7
				c-0.6,0-1.2,0.2-1.6,0.7c-0.4,0.4-0.7,1-0.7,1.6s0.2,1.2,0.7,1.6C36.6,14.1,37.1,14.4,37.8,14.4z"/>
			<path class='st2' d="M12.1,7c-1.4,0-2.6,0.5-3.6,1.5c-1,1-1.5,2.2-1.5,3.6c0,1.4,0.5,2.6,1.5,3.6c1,1,2.2,1.5,3.6,1.5s2.6-0.5,3.6-1.5
				c1-1,1.5-2.2,1.5-3.6c0-1.4-0.5-2.6-1.5-3.6C14.7,7.5,13.5,7,12.1,7z"/>
			<path class='st2' d="M45.2,23c-0.5-0.5-1.2-0.8-1.9-0.8c-0.8,0-1.4,0.3-1.9,0.8c-0.5,0.5-0.8,1.2-0.8,1.9c0,0.8,0.3,1.4,0.8,1.9
				c0.5,0.5,1.2,0.8,1.9,0.8c0.8,0,1.4-0.3,1.9-0.8c0.5-0.5,0.8-1.2,0.8-1.9C46,24.2,45.7,23.5,45.2,23z"/>
			<path class='st2' d="M37.8,34.5c-0.9,0-1.6,0.3-2.3,0.9c-0.6,0.6-0.9,1.4-0.9,2.3c0,0.9,0.3,1.6,0.9,2.3c0.6,0.6,1.4,0.9,2.3,0.9
				c0.9,0,1.6-0.3,2.3-0.9c0.6-0.6,0.9-1.4,0.9-2.3c0-0.9-0.3-1.6-0.9-2.3C39.4,34.9,38.6,34.5,37.8,34.5z"/>
			<path class='st2' d="M24.9,39.6c-1,0-1.9,0.4-2.6,1.1c-0.7,0.7-1.1,1.6-1.1,2.6c0,1,0.4,1.9,1.1,2.6c0.7,0.7,1.6,1.1,2.6,1.1
				c1,0,1.9-0.4,2.6-1.1c0.7-0.7,1.1-1.6,1.1-2.6c0-1-0.4-1.9-1.1-2.6C26.8,39.9,25.9,39.6,24.9,39.6z"/>
			<path class='st2' d="M24.9,1.1c-1.5,0-2.8,0.5-3.9,1.6c-1.1,1.1-1.6,2.4-1.6,3.9c0,1.5,0.5,2.8,1.6,3.9c1.1,1.1,2.4,1.6,3.9,1.6
				c1.5,0,2.8-0.5,3.9-1.6c1.1-1.1,1.6-2.4,1.6-3.9c0-1.5-0.5-2.8-1.6-3.9C27.7,1.6,26.4,1.1,24.9,1.1z"/>
		</g>
	</g>
</g>
<rect class="st0" width="48" height="48"/>
</svg>