<svg version="1.1" id="tooltip" xmlns="http://www.w3.org/2000/svg" xmlns:xlink="http://www.w3.org/1999/xlink" x="0px" y="0px"
	 viewBox="0 0 48 48" style="enable-background:new 0 0 48 48;" xml:space="preserve">
<style type="text/css">
	.st0{fill:none;}
	.st2{fill: #bdbdbd;}
</style>
<rect class="st0" width="48" height="48"/>
<g id="Path_236">
	<path class='st2' d="M41,7c0.5,0,3,0.1,3,3v22c0,0.5-0.1,3-3,3H16c-0.5,0-0.9,0.2-1.3,0.5L9,40.2v-3.3c0-1.1-0.9-2-2-2c-2.7,0-3-2.1-3-2.9V10
		c0,0,0-0.1,0-0.1c0-0.4,0.1-1.5,0.7-2.1C5.2,7.3,5.9,7,7,7H41 M41,5H7c-5.4,0-5,5-5,5v22c0,4.9,4.8,4.9,5,4.9c0,0,0,0,0,0v7.6
		l9-7.5h25c5,0,5-5,5-5V10C46,5,41,5,41,5L41,5z"/>
</g>
<g id="Line_16">
	<path class='st2' d="M38,16H10c-0.6,0-1-0.4-1-1s0.4-1,1-1h28c0.6,0,1,0.4,1,1S38.6,16,38,16z"/>
</g>
<g id="Line_17">
	<path class='st2' d="M38,22H10c-0.6,0-1-0.4-1-1s0.4-1,1-1h28c0.6,0,1,0.4,1,1S38.6,22,38,22z"/>
</g>
<g id="Line_18">
	<path class='st2' d="M38,28H10c-0.6,0-1-0.4-1-1s0.4-1,1-1h28c0.6,0,1,0.4,1,1S38.6,28,38,28z"/>
</g>
</svg>